# xmcd
# 
# Track frame offsets:
#     150
#     16807
#     34705
#     51362
#     69260
# 
# Disc length: 1485
# 
# Revision: 0
# Processed by: cddbd v1.5.2PL0 Copyright (c) Steve Scherf et al.
# Submitted via: fre:ac v1.0.17
# 
DISCID=3605cb05
DTITLE=はなちゃん (池田はな) - ここからまたスタート (pink)
DYEAR=2016
DGENRE=JPop
TTITLE0=ここからまたスタート
TTITLE1=大好きなのに
TTITLE2=ここからまたスタート -off vocal ver.-
TTITLE3=大好きなのに -off vocal ver.-
TTITLE4=ヴォーナストラック ～デビュー直前ラジオ～
EXTD=
EXTT0=
EXTT1=
EXTT2=
EXTT3=
EXTT4=
PLAYORDER=
